<svg width="462" height="462" viewBox="0 0 462 462" fill="none" xmlns="http://www.w3.org/2000/svg">
<path d="M231 0L431.052 115.5V346.5L231 462L30.9481 346.5V115.5L231 0Z" fill="#212121"/>
<path d="M166.558 267.558L231.258 231.141L194.841 295.841L130.141 332.258L166.558 267.558Z" fill="#E18E1C"/>
<path d="M295.841 267.558L332.258 332.258L267.558 295.841L231.141 231.141L295.841 267.558Z" fill="#E18E1C"/>
<path d="M194.841 166.558L231.258 231.258L166.558 194.841L130.141 130.141L194.841 166.558Z" fill="#E18E1C"/>
<path d="M267.558 166.558L332.258 130.141L295.841 194.841L231.141 231.258L267.558 166.558Z" fill="#E18E1C"/>
<path d="M159.5 211L231 230.999L159.5 250.998L88 230.999L159.5 211Z" fill="#E18E1C"/>
<path d="M302.5 211L374 230.999L302.5 250.998L231 230.999L302.5 211Z" fill="#E18E1C"/>
<path d="M211 159.5L230.999 88L250.998 159.5L230.999 231L211 159.5Z" fill="#E18E1C"/>
<path d="M250.998 302.5L230.999 374L211 302.5L230.999 231L250.998 302.5Z" fill="#E18E1C"/>
</svg>
