<svg width="500" height="500" viewBox="0 0 10000 10000" fill="none" xmlns="http://www.w3.org/2000/svg">
<path d="M5187.38 875.591L4999.5 767.121L4811.62 875.591L1522.03 2774.84L1334.15 2883.31V3100.25V6898.75V7115.69L1522.03 7224.16L4811.62 9123.41L4999.5 9231.88L5187.38 9123.41L8476.97 7224.16L8664.85 7115.69V6898.75V3100.25V2883.31L8476.97 2774.84L5187.38 875.591Z" stroke="url(#paint0_linear_99_2)" stroke-width="751.5"/>
<path d="M2762.11 6602V3396.99H3845.05C4096.49 3396.99 4302.01 3442.37 4461.64 3533.14C4622.31 3622.86 4741.24 3744.41 4818.45 3897.77C4895.65 4051.14 4934.25 4222.24 4934.25 4411.07C4934.25 4599.91 4895.65 4771.53 4818.45 4925.94C4742.29 5080.35 4624.39 5203.46 4464.77 5295.27C4305.14 5386.04 4100.66 5431.42 3851.31 5431.42H3075.1V5087.13H3838.79C4010.93 5087.13 4149.17 5057.4 4253.5 4997.93C4357.83 4938.46 4433.47 4858.13 4480.42 4756.93C4528.41 4654.68 4552.41 4539.4 4552.41 4411.07C4552.41 4282.75 4528.41 4167.99 4480.42 4066.79C4433.47 3965.59 4357.31 3886.3 4251.94 3828.91C4146.56 3770.49 4006.76 3741.28 3832.53 3741.28H3150.21V6602H2762.11Z" fill="url(#paint1_linear_99_2)"/>
<path d="M5747.24 7503.41C5684.65 7503.41 5628.83 7498.19 5579.79 7487.76C5530.76 7478.37 5496.85 7468.98 5478.07 7459.59L5571.97 7134.08C5661.69 7157.03 5740.98 7165.38 5809.84 7159.12C5878.7 7152.86 5939.73 7122.08 5992.94 7066.79C6047.19 7012.54 6096.75 6924.38 6141.61 6802.31L6210.47 6614.52L5321.58 4198.24H5722.2L6385.74 6113.74H6410.78L7074.32 4198.24H7474.94L6454.6 6952.55C6408.69 7076.7 6351.83 7179.47 6284.02 7260.84C6216.21 7343.26 6137.44 7404.3 6047.71 7443.94C5959.03 7483.59 5858.88 7503.41 5747.24 7503.41Z" fill="url(#paint2_linear_99_2)"/>
<defs>
<linearGradient id="paint0_linear_99_2" x1="4999.5" y1="1201" x2="-2431" y2="-4483.5" gradientUnits="userSpaceOnUse">
<stop stop-color="#5A9FD4"/>
<stop offset="1" stop-color="#61DAFB" stop-opacity="0"/>
</linearGradient>
<linearGradient id="paint1_linear_99_2" x1="4999.5" y1="2333" x2="4999.5" y2="7666" gradientUnits="userSpaceOnUse">
<stop stop-color="#5A9FD4"/>
<stop offset="1" stop-color="#306998"/>
</linearGradient>
<linearGradient id="paint2_linear_99_2" x1="4999.5" y1="2333" x2="4999.5" y2="7666" gradientUnits="userSpaceOnUse">
<stop stop-color="#FFD43B"/>
<stop offset="1" stop-color="#FFE873"/>
</linearGradient>
</defs>
</svg>
