<svg width="500" height="500" viewBox="0 0 10000 10000" fill="none" xmlns="http://www.w3.org/2000/svg">
<rect width="10000" height="10000" fill="white"/>
<path d="M5187.38 875.591L4999.5 767.121L4811.62 875.591L1522.03 2774.84L1334.15 2883.31V3100.25V6898.75V7115.69L1522.03 7224.16L4811.62 9123.41L4999.5 9231.88L5187.38 9123.41L8476.97 7224.16L8664.85 7115.69V6898.75V3100.25V2883.31L8476.97 2774.84L5187.38 875.591Z" stroke="#61DAFB" stroke-width="751.5"/>
<path d="M4999.5 5449.2C5247.84 5449.2 5449.16 5248.09 5449.16 5000C5449.16 4751.91 5247.84 4550.8 4999.5 4550.8C4751.16 4550.8 4549.84 4751.91 4549.84 5000C4549.84 5248.09 4751.16 5449.2 4999.5 5449.2Z" fill="#61DAFB"/>
<path d="M4999.5 5920.31C6332.07 5920.31 7412.33 5508.27 7412.33 5000C7412.33 4491.73 6332.07 4079.69 4999.5 4079.69C3666.93 4079.69 2586.68 4491.73 2586.68 5000C2586.68 5508.27 3666.93 5920.31 4999.5 5920.31Z" stroke="#61DAFB" stroke-width="100"/>
<path d="M4201.67 5460.16C4867.95 6613.01 5765.28 7341.56 6205.92 7087.42C6646.55 6833.28 6463.62 5692.69 5797.34 4539.84C5131.06 3386.99 4233.72 2658.44 3793.09 2912.58C3352.46 3166.72 3535.38 4307.31 4201.67 5460.16Z" stroke="#61DAFB" stroke-width="100"/>
<path d="M4201.67 4539.84C3535.38 5692.69 3352.46 6833.28 3793.09 7087.42C4233.72 7341.56 5131.05 6613.01 5797.34 5460.16C6463.62 4307.31 6646.55 3166.72 6205.91 2912.58C5765.28 2658.44 4867.95 3386.99 4201.67 4539.84Z" stroke="#61DAFB" stroke-width="100"/>
</svg>
