<svg width="500" height="500" viewBox="0 0 10000 10000" fill="none" xmlns="http://www.w3.org/2000/svg">
<rect width="10000" height="10000" fill="white"/>
<path d="M5000 500L8897.11 2750V7250L5000 9500L1102.89 7250V2750L5000 500Z" fill="#1F269D"/>
<path d="M4999.5 1201L8289.1 3100.25V6898.75L4999.5 8798L1709.9 6898.75V3100.25L4999.5 1201Z" fill="white"/>
<path d="M7197.66 6326.55C7171.85 6241.03 7114.13 6170.55 7035.06 6128.13C6957.76 6086.64 6869.39 6076.95 6785.57 6100.71L5923.42 6268.29C5860.68 6162.21 5739.18 6090.13 5599.83 6090.13H5170.05L5162.85 6089.7L5153.89 6091.35C5143.66 6092.44 5014.15 6104.79 4794.42 6024.83C4654.17 5973.81 4566.18 5940.23 4501.89 5915.76C4446.06 5894.44 4409.18 5880.41 4373.86 5868.62C4304.98 5845.66 4001.42 5840.26 3787.21 5839.42C3774.08 5728.32 3679.56 5641.88 3565.04 5641.88H2787V5854.22H3187.81V7057.39H2787V7269.72H3565.04C3660.4 7269.72 3741.83 7209.69 3774.08 7125.48C3927.8 7132.43 4013.05 7176.24 4020.85 7180.41L4028 7184.96L4758.55 7448.6C4961.27 7520.6 5112.96 7538.88 5214.76 7538.88C5308.1 7538.88 5359.51 7523.51 5369.87 7520.05L5377.03 7517.65L5972.18 7219.89L6981.91 6741.94C7153.64 6685.28 7250.22 6500.84 7197.68 6326.55L7197.66 6326.55ZM3576.78 7045.61C3576.78 7051.89 3571.27 7057.41 3564.99 7057.41H3399.96V5854.23H3564.99C3571.27 5854.23 3576.78 5859.75 3576.78 5866.03V7045.61ZM6912.15 6541.28L6904.57 6543.56L5880.19 7028.46L5298.77 7319.32C5267.7 7325.81 5112.81 7349.15 4829.84 7248.67L4118.62 6992.02C4083.51 6973.4 3971.69 6922.64 3788.88 6913.62V6051.79C4016.44 6053.01 4261.94 6059.97 4308.41 6070.62C4339.02 6080.9 4373.92 6094.22 4426.26 6114.14C4491.18 6138.92 4580.06 6172.79 4721.82 6224.4C4973.71 6316.07 5133.66 6307.27 5176.64 6302.46H5599.68C5684.51 6302.46 5756.2 6361.86 5756.2 6432.22C5756.2 6502.57 5684.51 6561.97 5599.68 6561.97H5171.08L4909.29 6556.16C4874.13 6552.07 4753.34 6545.08 4665.1 6624.62C4622.87 6662.7 4573.91 6734.24 4580.48 6858.86L4792.37 6847.69C4791.4 6829.24 4791.99 6796.3 4806.9 6782.56C4825.38 6765.54 4868.83 6764.82 4884.74 6767.01L4890.68 6768.11L5167.55 6774.26L5599.72 6774.3C5786.86 6774.3 5941.8 6644.25 5965.25 6476.45L6830.65 6308.23L6841.05 6305.66C6872.25 6296.27 6905.51 6299.68 6934.6 6315.27C6963.69 6330.9 6984.91 6356.68 6994.34 6387.94C7014 6452.9 6977.12 6521.69 6912.16 6541.29L6912.15 6541.28Z" fill="#1F269D"/>
<path d="M4317.91 2463C4288.61 2463 4264.92 2486.74 4264.92 2515.99V3363.8H3946.99C3917.69 3363.8 3894 3387.54 3894 3416.79V4847.48C3894 4876.73 3917.69 4900.47 3946.99 4900.47H4264.92V5589.32C4264.92 5618.57 4288.61 5642.31 4317.91 5642.31H6702.39C6731.69 5642.31 6755.38 5618.57 6755.38 5589.32C6755.38 5589.32 6755.02 3259.71 6754.97 3258.97C6755.23 3244.82 6750.24 3230.8 6739.86 3220.36L5998.02 2478.52C5984.98 2465.49 5969.65 2463 5939.34 2463H4317.91ZM4370.9 2568.98H5907.56V3257.83C5907.56 3287.08 5931.25 3310.82 5960.55 3310.82H6649.4V5536.33H4370.9V4900.47H5377.68C5406.98 4900.47 5430.67 4876.73 5430.67 4847.48V3416.79C5430.67 3387.54 5406.98 3363.8 5377.68 3363.8H4370.9V2568.98ZM6013.54 2643.91L6574.47 3204.84H6013.54V2643.91ZM3999.98 3469.78H5324.69V4794.49H3999.98V3469.78Z" fill="#1F269D"/>
<path d="M6050.51 3619L6478.58 3619C6490.13 3619 6500.94 3624.7 6507.46 3634.23C6515.62 3646.15 6515.62 3661.85 6507.46 3673.77C6500.94 3683.3 6490.13 3689 6478.58 3689H6050.51H5617.42C5605.87 3689 5595.06 3683.3 5588.54 3673.77C5580.38 3661.85 5580.38 3646.15 5588.54 3634.23C5595.06 3624.7 5605.87 3619 5617.42 3619L6050.51 3619Z" fill="#1F269D"/>
<path d="M6050.51 3929L6478.58 3929C6490.13 3929 6500.94 3934.7 6507.46 3944.23C6515.62 3956.15 6515.62 3971.85 6507.46 3983.77C6500.94 3993.3 6490.13 3999 6478.58 3999H6050.51H5617.42C5605.87 3999 5595.06 3993.3 5588.54 3983.77C5580.38 3971.85 5580.38 3956.15 5588.54 3944.23C5595.06 3934.7 5605.87 3929 5617.42 3929L6050.51 3929Z" fill="#1F269D"/>
<path d="M6050.51 4239L6478.58 4239C6490.13 4239 6500.94 4244.7 6507.46 4254.23C6515.62 4266.15 6515.62 4281.85 6507.46 4293.77C6500.94 4303.3 6490.13 4309 6478.58 4309H6050.51H5617.42C5605.87 4309 5595.06 4303.3 5588.54 4293.77C5580.38 4281.85 5580.38 4266.15 5588.54 4254.23C5595.06 4244.7 5605.87 4239 5617.42 4239L6050.51 4239Z" fill="#1F269D"/>
<path d="M6050.51 4549L6478.58 4549C6490.13 4549 6500.94 4554.7 6507.46 4564.23C6515.62 4576.15 6515.62 4591.85 6507.46 4603.77C6500.94 4613.3 6490.13 4619 6478.58 4619H6050.51H5617.42C5605.87 4619 5595.06 4613.3 5588.54 4603.77C5580.38 4591.85 5580.38 4576.15 5588.54 4564.23C5595.06 4554.7 5605.87 4549 5617.42 4549L6050.51 4549Z" fill="#1F269D"/>
<circle cx="4613.76" cy="4118.9" r="410.661" fill="#1F269D"/>
<circle cx="4617.21" cy="4122.35" r="317.486" fill="white"/>
<rect x="4782.87" y="3880.79" width="379.603" height="476.229" fill="white"/>
</svg>
